<svg width="16.000000" height="15.283203" viewBox="0 0 16 15.2832" fill="none" xmlns="http://www.w3.org/2000/svg" xmlns:xlink="http://www.w3.org/1999/xlink">
	<desc>
			Created with Pixso.
	</desc>
	<defs>
		<clipPath id="clip1_1265">
			<rect id="Instagram / Negative" width="16.000000" height="15.283203" fill="white" fill-opacity="0"/>
		</clipPath>
	</defs>
	<rect id="Instagram / Negative" width="16.000000" height="15.283203" fill="#FFFFFF" fill-opacity="0"/>
	<g clip-path="url(#clip1_1265)">
		<path id="Vector" d="M8 1.3761C10.1377 1.3761 10.3906 1.38501 11.2314 1.42084C12.0127 1.45367 12.4346 1.57904 12.7158 1.68353C13.0874 1.82086 13.3564 1.98804 13.6343 2.25366C13.9155 2.52234 14.0874 2.77606 14.2314 3.13129C14.3408 3.3999 14.4717 3.80585 14.5063 4.54913C14.5439 5.3551 14.5532 5.59686 14.5532 7.63562C14.5532 9.67737 14.5439 9.91913 14.5063 10.7221C14.4717 11.4684 14.3408 11.8713 14.2314 12.14C14.0874 12.4952 13.9126 12.752 13.6343 13.0176C13.353 13.2863 13.0874 13.4504 12.7158 13.5877C12.4346 13.6922 12.0093 13.8176 11.2314 13.8504C10.3877 13.8862 10.1343 13.8952 8 13.8952C5.8623 13.8952 5.60938 13.8862 4.76855 13.8504C3.9873 13.8176 3.56543 13.6922 3.28418 13.5877C2.9126 13.4504 2.64355 13.2833 2.36572 13.0176C2.08447 12.749 1.9126 12.4952 1.76855 12.14C1.65918 11.8713 1.52832 11.4654 1.49365 10.7221C1.45605 9.9162 1.44678 9.67438 1.44678 7.63562C1.44678 5.59387 1.45605 5.35211 1.49365 4.54913C1.52832 3.80292 1.65918 3.3999 1.76855 3.13129C1.9126 2.77606 2.0874 2.51935 2.36572 2.25366C2.64697 1.98505 2.9126 1.82086 3.28418 1.68353C3.56543 1.57904 3.99072 1.45367 4.76855 1.42084C5.60938 1.38501 5.8623 1.3761 8 1.3761ZM8 0C5.82812 0 5.55615 0.00897217 4.70312 0.0447998C3.85303 0.0805664 3.26855 0.211914 2.7627 0.399963C2.23438 0.596985 1.7876 0.856689 1.34375 1.28357C0.896973 1.7074 0.625 2.13428 0.418945 2.63574C0.22168 3.12231 0.0844727 3.67749 0.046875 4.48944C0.00927734 5.30731 0 5.56702 0 7.6416C0 9.71619 0.00927734 9.97589 0.046875 10.7908C0.0844727 11.6027 0.22168 12.1609 0.418945 12.6445C0.625 13.1489 0.896973 13.5758 1.34375 13.9996C1.7876 14.4235 2.23438 14.6862 2.75928 14.8802C3.26855 15.0683 3.8501 15.1996 4.7002 15.2354C5.55322 15.2712 5.8252 15.2802 7.99707 15.2802C10.1689 15.2802 10.4404 15.2712 11.2939 15.2354C12.1436 15.1996 12.728 15.0683 13.2344 14.8802C13.7593 14.6862 14.2061 14.4235 14.6499 13.9996C15.0938 13.5758 15.3687 13.1489 15.5718 12.6475C15.7686 12.1609 15.9062 11.6057 15.9438 10.7938C15.9814 9.97888 15.9907 9.71918 15.9907 7.64459C15.9907 5.57001 15.9814 5.3103 15.9438 4.49542C15.9062 3.68347 15.7686 3.12531 15.5718 2.64172C15.375 2.13428 15.103 1.7074 14.6562 1.28357C14.2124 0.85968 13.7656 0.596985 13.2407 0.402954C12.7314 0.214905 12.1499 0.0835571 11.2998 0.0477295C10.4438 0.00897217 10.1719 0 8 0Z" fill="#FFFFFF" fill-opacity="1.000000" fill-rule="nonzero"/>
		<path id="Vector" d="M8 3.71631C5.73145 3.71631 3.89062 5.47449 3.89062 7.6416C3.89062 9.80872 5.73145 11.5668 8 11.5668C10.2686 11.5668 12.1094 9.80872 12.1094 7.6416C12.1094 5.47449 10.2686 3.71631 8 3.71631ZM8 10.1878C6.52832 10.1878 5.33447 9.04755 5.33447 7.6416C5.33447 6.23566 6.52832 5.0954 8 5.0954C9.47168 5.0954 10.6655 6.23566 10.6655 7.6416C10.6655 9.04755 9.47168 10.1878 8 10.1878Z" fill="#FFFFFF" fill-opacity="1.000000" fill-rule="nonzero"/>
		<path id="Vector" d="M13.2314 3.56091C13.2314 4.06836 12.7998 4.47729 12.272 4.47729C11.7407 4.47729 11.3125 4.06537 11.3125 3.56091C11.3125 3.05347 11.7437 2.64453 12.272 2.64453C12.7998 2.64453 13.2314 3.05646 13.2314 3.56091Z" fill="#FFFFFF" fill-opacity="1.000000" fill-rule="nonzero"/>
	</g>
</svg>
