<svg width="16.000000" height="15.283203" viewBox="0 0 16 15.2832" fill="none" xmlns="http://www.w3.org/2000/svg" xmlns:xlink="http://www.w3.org/1999/xlink">
	<desc>
			Created with Pixso.
	</desc>
	<defs>
		<clipPath id="clip1_1270">
			<rect id="LinkedIn / Negative" width="16.000000" height="15.283203" fill="white" fill-opacity="0"/>
		</clipPath>
	</defs>
	<rect id="LinkedIn / Negative" width="16.000000" height="15.283203" fill="#FFFFFF" fill-opacity="0"/>
	<g clip-path="url(#clip1_1270)">
		<path id="Vector" d="M14.8154 0L1.18115 0C0.52832 0 0 0.492554 0 1.10144L0 14.1788C0 14.7877 0.52832 15.2832 1.18115 15.2832L14.8154 15.2832C15.4688 15.2832 16 14.7877 16 14.1818L16 1.10144C16 0.492554 15.4688 0 14.8154 0ZM4.74707 13.0236L2.37207 13.0236L2.37207 5.72821L4.74707 5.72821L4.74707 13.0236ZM3.55957 4.73419C2.79688 4.73419 2.18115 4.14618 2.18115 3.42084C2.18115 2.69543 2.79688 2.10742 3.55957 2.10742C4.31885 2.10742 4.93457 2.69543 4.93457 3.42084C4.93457 4.14319 4.31885 4.73419 3.55957 4.73419ZM13.6343 13.0236L11.2627 13.0236L11.2627 9.47736C11.2627 8.63263 11.2471 7.54309 10.0283 7.54309C8.79395 7.54309 8.60645 8.46545 8.60645 9.41766L8.60645 13.0236L6.2373 13.0236L6.2373 5.72821L8.5127 5.72821L8.5127 6.72522L8.54395 6.72522C8.85938 6.1521 9.63428 5.54614 10.7876 5.54614C13.1904 5.54614 13.6343 7.05652 13.6343 9.02069L13.6343 13.0236Z" fill="#FFFFFF" fill-opacity="1.000000" fill-rule="nonzero"/>
	</g>
</svg>
