<svg width="16.000000" height="12.418091" viewBox="0 0 16 12.4181" fill="none" xmlns="http://www.w3.org/2000/svg" xmlns:xlink="http://www.w3.org/1999/xlink">
	<desc>
			Created with Pixso.
	</desc>
	<defs/>
	<path id="Vector" d="M5.0332 12.4181C11.0698 12.4181 14.3721 7.63995 14.3721 3.49768C14.3721 3.36334 14.3691 3.22607 14.3628 3.09174C15.0054 2.64795 15.5596 2.09827 16 1.46851C15.4019 1.72278 14.7666 1.88879 14.1157 1.961C14.8008 1.56885 15.3135 0.952759 15.5596 0.22699C14.915 0.591797 14.2104 0.84906 13.4756 0.987915C12.9805 0.485413 12.3262 0.15271 11.6133 0.0412598C10.9004 -0.0702515 10.1689 0.0457153 9.53174 0.371155C8.89502 0.696594 8.3877 1.21338 8.08936 1.84167C7.79053 2.46991 7.7168 3.17468 7.87988 3.84692C6.5752 3.78436 5.29883 3.46063 4.1333 2.89667C2.96826 2.33276 1.93994 1.54114 1.11523 0.573303C0.696289 1.26337 0.567871 2.08002 0.756836 2.85724C0.945312 3.6344 1.43652 4.31378 2.13086 4.75739C1.60986 4.74158 1.1001 4.60748 0.643555 4.36633L0.643555 4.40515C0.643066 5.12933 0.905273 5.83136 1.38574 6.39191C1.86572 6.95239 2.53418 7.33679 3.27734 7.47968C2.79492 7.60583 2.28809 7.62427 1.79639 7.53339C2.00635 8.15625 2.41455 8.70099 2.96387 9.09161C3.51318 9.4823 4.17676 9.69934 4.86133 9.71246C3.69873 10.5848 2.2627 11.0579 0.78418 11.0557C0.521973 11.0553 0.260254 11.04 0 11.0098C1.50195 11.9301 3.24902 12.4189 5.0332 12.4181Z" fill="#FFFFFF" fill-opacity="1.000000" fill-rule="nonzero"/>
</svg>
